<svg width="402" height="80" viewBox="0 0 402 80" fill="none" xmlns="http://www.w3.org/2000/svg">
<mask id="mask0" mask-type="alpha" maskUnits="userSpaceOnUse" x="2" y="14" width="69" height="55">
<path d="M26.9852 34.1346C22.691 28.2246 23.4473 20.4088 28.6743 16.6775C33.9013 12.9463 41.6197 14.7125 45.9139 20.6225L26.9852 34.1346Z" fill="#EDEDEE"/>
<path d="M3.15021 26.4314C1.4104 24.0369 1.95314 20.7014 4.36246 18.9815C6.77179 17.2616 10.1353 17.8085 11.8751 20.2031L3.15021 26.4314Z" fill="#EDEDEE"/>
<path d="M69.8234 53.5881C71.5632 55.9827 71.0205 59.3181 68.6112 61.038C66.2018 62.7579 62.8383 62.211 61.0985 59.8165L69.8234 53.5881Z" fill="#EDEDEE"/>
<path d="M48.0104 48.6173C52.3046 54.5273 51.5483 62.3432 46.3213 66.0744C41.0943 69.8057 33.3759 68.0395 29.0818 62.1295L48.0104 48.6173Z" fill="#EDEDEE"/>
<rect width="10.7065" height="44.1603" transform="matrix(0.813869 -0.58105 0.58776 0.809037 3.14404 26.418)" fill="#EDEDEE"/>
<rect width="10.7068" height="40.8161" transform="matrix(0.813873 -0.581045 0.587765 0.809033 37.1255 26.8027)" fill="#EDEDEE"/>
<rect width="8.4775" height="24.0914" transform="matrix(0.813886 -0.581027 0.587783 0.80902 26.9395 34.0801)" fill="#EDEDEE"/>
</mask>
<g mask="url(#mask0)">
<rect width="51.5353" height="77.3216" transform="matrix(0.826967 -0.562251 0.569335 0.822106 -6.05225 24.3086)" fill="url(#paint0_linear)"/>
</g>
<path d="M102.96 57.27C100.98 57.27 99.075 57.15 97.245 56.91C95.445 56.67 93.765 56.355 92.205 55.965V49.035C93.705 49.155 95.4 49.26 97.29 49.35C99.21 49.41 100.95 49.44 102.51 49.44C104.01 49.44 105.12 49.275 105.84 48.945C106.59 48.585 106.965 47.985 106.965 47.145V46.605C106.965 45.945 106.725 45.45 106.245 45.12C105.795 44.79 105.255 44.625 104.625 44.625H102.24C98.76 44.625 96.12 43.86 94.32 42.33C92.52 40.8 91.62 38.235 91.62 34.635V33.15C91.62 29.85 92.61 27.39 94.59 25.77C96.57 24.12 99.42 23.295 103.14 23.295C105.24 23.295 107.175 23.43 108.945 23.7C110.715 23.97 112.26 24.27 113.58 24.6V31.53C112.2 31.41 110.64 31.32 108.9 31.26C107.19 31.17 105.63 31.125 104.22 31.125C102.93 31.125 101.88 31.275 101.07 31.575C100.29 31.875 99.9 32.55 99.9 33.6V34.05C99.9 35.58 100.875 36.345 102.825 36.345H105.795C107.895 36.345 109.635 36.75 111.015 37.56C112.425 38.34 113.475 39.42 114.165 40.8C114.885 42.15 115.245 43.695 115.245 45.435V46.92C115.245 49.77 114.75 51.945 113.76 53.445C112.77 54.945 111.36 55.965 109.53 56.505C107.7 57.015 105.51 57.27 102.96 57.27ZM128.866 57C126.796 57 125.131 56.73 123.871 56.19C122.641 55.62 121.756 54.675 121.216 53.355C120.706 52.005 120.481 50.175 120.541 47.865L120.811 39.675H117.076V34.095L121.171 32.745L122.251 25.95H129.181V32.745H134.086V39.675H129.181V47.82C129.181 48.6 129.301 49.185 129.541 49.575C129.811 49.935 130.231 50.145 130.801 50.205L133.906 50.52V57H128.866ZM136.98 57V32.745H143.775L145.71 36.12C146.43 35.13 147.255 34.26 148.185 33.51C149.145 32.76 150.3 32.385 151.65 32.385C151.89 32.385 152.175 32.4 152.505 32.43C152.835 32.46 153.15 32.52 153.45 32.61V41.565C152.94 41.505 152.415 41.46 151.875 41.43C151.365 41.4 150.9 41.385 150.48 41.385C148.23 41.385 146.64 42.015 145.71 43.275V57H136.98ZM167.161 57.225C164.401 57.225 162.181 56.88 160.501 56.19C158.821 55.5 157.591 54.27 156.811 52.5C156.061 50.7 155.686 48.18 155.686 44.94C155.686 41.61 156.031 39.045 156.721 37.245C157.411 35.415 158.551 34.14 160.141 33.42C161.761 32.7 163.966 32.34 166.756 32.34C169.336 32.34 171.376 32.58 172.876 33.06C174.376 33.54 175.441 34.41 176.071 35.67C176.731 36.9 177.061 38.655 177.061 40.935C177.061 42.705 176.716 44.1 176.026 45.12C175.336 46.11 174.361 46.815 173.101 47.235C171.841 47.655 170.356 47.865 168.646 47.865H164.326C164.416 48.585 164.596 49.17 164.866 49.62C165.136 50.04 165.631 50.34 166.351 50.52C167.071 50.7 168.136 50.79 169.546 50.79H176.161V55.875C175.111 56.175 173.851 56.475 172.381 56.775C170.941 57.075 169.201 57.225 167.161 57.225ZM164.236 42.78H167.701C168.301 42.78 168.736 42.645 169.006 42.375C169.276 42.105 169.411 41.64 169.411 40.98C169.411 40.11 169.201 39.495 168.781 39.135C168.361 38.745 167.686 38.55 166.756 38.55C165.886 38.55 165.241 38.85 164.821 39.45C164.431 40.02 164.236 41.13 164.236 42.78ZM185.843 57.27C183.983 57.27 182.468 56.715 181.298 55.605C180.158 54.495 179.588 52.995 179.588 51.105V48.63C179.588 46.83 180.248 45.33 181.568 44.13C182.888 42.93 184.988 42.33 187.868 42.33H192.728V41.565C192.728 40.965 192.623 40.5 192.413 40.17C192.203 39.81 191.768 39.57 191.108 39.45C190.478 39.3 189.473 39.225 188.093 39.225H181.028V34.23C182.288 33.72 183.728 33.3 185.348 32.97C186.998 32.64 189.008 32.475 191.378 32.475C193.418 32.475 195.188 32.715 196.688 33.195C198.218 33.645 199.388 34.485 200.198 35.715C201.038 36.915 201.458 38.655 201.458 40.935V57H194.528L193.178 54.57C192.608 55.14 191.723 55.74 190.523 56.37C189.323 56.97 187.763 57.27 185.843 57.27ZM190.433 51.33C190.853 51.33 191.288 51.27 191.738 51.15C192.188 51 192.518 50.865 192.728 50.745V46.38L190.883 46.65C190.043 46.77 189.398 46.995 188.948 47.325C188.528 47.625 188.318 48.105 188.318 48.765V49.665C188.318 50.265 188.498 50.7 188.858 50.97C189.248 51.21 189.773 51.33 190.433 51.33ZM205.315 57V32.745H212.605L214.045 35.085C215.005 34.335 216.025 33.69 217.105 33.15C218.215 32.61 219.685 32.34 221.515 32.34C223.015 32.34 224.245 32.655 225.205 33.285C226.195 33.885 226.945 34.665 227.455 35.625C228.415 34.905 229.555 34.185 230.875 33.465C232.225 32.715 233.635 32.34 235.105 32.34C237.175 32.34 238.765 32.715 239.875 33.465C241.015 34.185 241.795 35.25 242.215 36.66C242.635 38.04 242.845 39.72 242.845 41.7V57H234.115V42.51C234.115 41.58 233.89 40.965 233.44 40.665C232.99 40.335 232.42 40.17 231.73 40.17C231.13 40.17 230.53 40.305 229.93 40.575C229.33 40.845 228.835 41.175 228.445 41.565V57H219.715V42.51C219.715 41.58 219.49 40.965 219.04 40.665C218.59 40.335 218.02 40.17 217.33 40.17C216.73 40.17 216.13 40.305 215.53 40.575C214.93 40.845 214.435 41.175 214.045 41.565V57H205.315ZM255.891 57C252.861 57 250.656 56.31 249.276 54.93C247.896 53.55 247.206 51.345 247.206 48.315V23.565H255.936V46.83C255.936 48.39 256.716 49.17 258.276 49.17H267.996V57H255.891ZM277.541 57.27C275.441 57.27 273.791 56.61 272.591 55.29C271.391 53.94 270.791 52.17 270.791 49.98V32.745H279.521V47.235C279.521 48.165 279.746 48.795 280.196 49.125C280.646 49.425 281.216 49.575 281.906 49.575C282.356 49.575 282.926 49.44 283.616 49.17C284.336 48.9 284.861 48.57 285.191 48.18V32.745H293.921V57H286.631L285.191 54.66C284.171 55.32 283.001 55.92 281.681 56.46C280.391 57 279.011 57.27 277.541 57.27ZM295.884 57L303.894 44.445L295.884 32.745H304.659L308.889 38.955L312.444 32.745H321.264L313.254 45.345L321.264 57H312.489L308.259 50.835L304.704 57H295.884Z" fill="#EDEDEE"/>
<defs>
<linearGradient id="paint0_linear" x1="0" y1="0" x2="71.6947" y2="45.6848" gradientUnits="userSpaceOnUse">
<stop stop-color="#33D7D4"/>
<stop offset="0.359375" stop-color="#38B8E0"/>
<stop offset="0.614583" stop-color="#2C69DF"/>
<stop offset="1" stop-color="#7218CD"/>
</linearGradient>
</defs>
</svg>
